<svg width="377" height="351" viewBox="0 0 377 351" fill="none" xmlns="http://www.w3.org/2000/svg">
<path d="M357 0H20C8.95431 0 0 8.9543 0 20V64.0938C0 75.1394 8.95429 84.0938 20 84.0938H120.279C131.325 84.0938 140.279 93.0481 140.279 104.094V331C140.279 342.046 149.233 351 160.279 351H213.068C224.114 351 233.068 342.046 233.068 331V104.094C233.068 93.0481 242.022 84.0938 253.068 84.0938H357C368.046 84.0938 377 75.1394 377 64.0938V20C377 8.9543 368.046 0 357 0Z" fill="#00BF6F"/>
<path fill-rule="evenodd" clip-rule="evenodd" d="M227.236 0C226.32 2.61702 225.597 5.34014 225.088 8.15568L163.423 349.473C163.331 349.982 163.246 350.491 163.17 351H213.068C224.114 351 233.068 342.046 233.068 331V104.094C233.068 93.0481 242.022 84.0938 253.068 84.0938H357C368.046 84.0938 377 75.1394 377 64.0938V20C377 8.9543 368.046 0 357 0H227.236Z" fill="#73CF82"/>
</svg>
